# xmcd
#
# Track frame offsets:
#	150
#	20118
#	48620
#	88197
#	133761
#	172276
#	206932
#	222358
#	246126
#	279933
#
# Disc length: 4259 seconds
#
# Revision: 1
# Processed by: cddbd v1.5.2PL0 Copyright (c) Steve Scherf et al.
# Submitted via: audiograbber 1.83.01
#
DISCID=a210a10a
DTITLE=Grateful Dead - 70-02-01 The Warehouse, New Orleans LA
DYEAR=1900
DGENRE=
TTITLE0=BIODTL
TTITLE1=China Cat Sunflower
TTITLE2=I Know You Rider
TTITLE3=Black Peter
TTITLE4=Cumberland Blues
TTITLE5=Good Lovin' > Drums > Good Lovin'
TTITLE6=Me and My Uncle
TTITLE7=Cold Rain and Snow
TTITLE8=High Time
TTITLE9=Dire Wolf
EXTD=
EXTT0=
EXTT1=
EXTT2=
EXTT3=
EXTT4=
EXTT5=
EXTT6=
EXTT7=
EXTT8=
EXTT9=
PLAYORDER=
